<svg width="84" height="87" viewBox="0 0 84 87" fill="none" xmlns="http://www.w3.org/2000/svg">
    <path d="M80.152 30.8696C80.9952 31.7351 81.1118 33.0972 80.4276 34.1001C67.9144 52.4491 52.4412 68.4712 34.6745 81.4758L33.2715 82.5027C32.2426 83.2556 30.8341 83.1356 29.9405 82.218L23.6243 75.7355C27.3529 71.7733 27.312 65.4587 23.5015 61.5478C19.6909 57.6369 13.5384 57.595 9.6776 61.4218L3.86773 55.4589C2.7629 54.325 2.9153 52.4441 4.18741 51.5131L5.59135 50.4854C22.9285 37.7952 38.0278 22.1607 50.2381 4.25521C51.0937 3.0011 52.8453 2.8436 53.8998 3.92615L59.8126 9.99486C56.0985 13.9583 56.1436 20.262 59.9496 24.1679C63.7556 28.0739 69.8972 28.1207 73.759 24.3083L80.152 30.8696Z" fill="#48AF99"/>
    <path d="M82.9521 32.6655L60.3707 62.0117L31.1646 84.7021L25.5477 78.8958L23.5213 76.3743L25.5477 73.3652L26.2579 70.3555L25.8669 67.1458L24.6941 64.1363L22.7393 61.7288L20.3936 60.1238L17.8524 59.3213H14.7248L11.4017 60.5251L9.44695 62.3306L4.75562 56.5126L12.3872 55.3445C36.058 51.7212 58.4234 41.9121 77.3352 26.8593L82.9521 32.6655Z" fill="#279191"/>
    <path fill-rule="evenodd" clip-rule="evenodd" d="M20.7745 76.0226C20.7754 75.1699 21.1066 74.3527 21.6952 73.7513L21.7057 73.7406C24.3362 71.0409 24.3362 66.6634 21.7057 63.9638C19.0751 61.2641 14.8102 61.2641 12.1797 63.9638L12.1694 63.9745C11.5832 64.5785 10.7871 64.9185 9.95653 64.9196C9.12583 64.9202 8.329 64.5821 7.74167 63.9792L1.65649 57.7339C-0.815655 55.1967 -0.474729 50.9882 2.37164 48.9047L3.77558 47.877L5.59163 50.4906L4.18769 51.5182C2.91558 52.4493 2.76318 54.3302 3.86796 55.4641L9.9532 61.7095L9.96819 61.694C9.97298 61.6891 9.97772 61.6842 9.98268 61.6793C13.8356 57.7406 20.07 57.7455 23.9172 61.694C27.764 65.6422 27.7691 72.0402 23.9324 75.9944C23.9274 75.9995 23.9222 76.0051 23.9172 76.0102L23.902 76.0254L29.9408 82.2234C30.8344 83.1404 32.2428 83.2604 33.2717 82.5075L34.6747 81.4806C52.4417 68.476 67.9149 52.4542 80.428 34.1052C81.1117 33.1024 80.9956 31.7402 80.1519 30.8747L73.8091 24.3646C73.786 24.3887 73.7629 24.4126 73.7397 24.4367C73.7161 24.4605 73.6924 24.4843 73.6693 24.5081C69.812 28.3897 63.6191 28.366 59.7905 24.4367C55.962 20.5071 55.9389 14.1511 59.7212 10.1923C59.7443 10.1682 59.7674 10.1442 59.7905 10.1203C59.8142 10.0964 59.8373 10.0727 59.861 10.049L53.9003 3.93132C52.8452 2.84879 51.0941 3.00628 50.2386 4.26038C38.028 22.1658 22.9287 37.8004 5.59163 50.4906L3.77558 47.877C20.8229 35.3991 35.6698 20.0259 47.6764 2.41983C49.6468 -0.46972 53.6816 -0.832456 56.1119 1.66144L62.0726 7.7792C62.6627 8.38499 62.9924 9.20784 62.9884 10.0646C62.9845 10.9214 62.6469 11.741 62.0506 12.3409C62.0342 12.3571 62.0185 12.3736 62.0021 12.3901C59.3718 15.0899 59.3718 19.467 62.0021 22.1667C64.6325 24.8665 68.8973 24.8665 71.5282 22.1667C71.5439 22.1504 71.5597 22.1338 71.5761 22.117C72.1605 21.5053 72.9592 21.1587 73.7939 21.1546C74.6285 21.1504 75.43 21.4889 76.0207 22.0947L82.364 28.6049C84.2803 30.5718 84.5446 33.6669 82.9902 35.9459C70.273 54.5942 54.5473 70.8775 36.4908 84.094L35.0877 85.1209C32.8148 86.7847 29.7033 86.5192 27.7292 84.493L21.6905 78.2956C21.1032 77.6926 20.7737 76.8748 20.7745 76.0226Z" fill="#125978"/>
    <path fill-rule="evenodd" clip-rule="evenodd" d="M42.0153 15.1374L43.3978 16.556C44.0082 17.1828 44.0082 18.199 43.3978 18.8258C42.7869 19.4527 41.7966 19.4527 41.1863 18.8258L39.8037 17.4072C39.1934 16.7804 39.1934 15.7642 39.8037 15.1374C40.4147 14.5107 41.4049 14.5107 42.0153 15.1374Z" fill="#125978"/>
    <path fill-rule="evenodd" clip-rule="evenodd" d="M47.8221 21.1017L49.2047 22.5203C49.8151 23.147 49.8151 24.1632 49.2047 24.7901C48.5937 25.4169 47.6035 25.4169 46.9925 24.7901L45.6106 23.3714C44.9996 22.7446 44.9996 21.7285 45.6106 21.1017C46.2215 20.4749 47.2112 20.4749 47.8221 21.1017Z" fill="#125978"/>
    <path fill-rule="evenodd" clip-rule="evenodd" d="M55.0082 30.7463C54.3972 31.3731 53.407 31.3731 52.7966 30.7463L51.1379 29.0439C50.527 28.4171 50.527 27.401 51.1379 26.7742C51.7483 26.1474 52.7385 26.1474 53.3495 26.7742L55.0082 28.4764C55.6186 29.1032 55.6186 30.1195 55.0082 30.7463Z" fill="#125978"/>
    <path fill-rule="evenodd" clip-rule="evenodd" d="M60.8142 36.705C60.2039 37.3317 59.2136 37.3317 58.6027 36.705L56.9445 35.0025C56.3336 34.3758 56.3336 33.3596 56.9445 32.7328C57.5549 32.106 58.5452 32.106 59.1556 32.7328L60.8142 34.435C61.4252 35.0618 61.4252 36.0782 60.8142 36.705Z" fill="#125978"/>
    <path fill-rule="evenodd" clip-rule="evenodd" d="M64.9601 38.6963L66.3427 40.115C66.9531 40.7418 66.9531 41.758 66.3427 42.3847C65.7317 43.0115 64.7415 43.0115 64.1311 42.3847L62.7486 40.9661C62.1382 40.3394 62.1382 39.3231 62.7486 38.6963C63.3595 38.0695 64.3498 38.0695 64.9601 38.6963Z" fill="#125978"/>
    <path fill-rule="evenodd" clip-rule="evenodd" d="M70.7672 44.6516L72.1492 46.0703C72.7601 46.6971 72.7601 47.7133 72.1492 48.3401C71.5388 48.9668 70.5485 48.9668 69.9376 48.3401L68.5556 46.9215C67.9447 46.2947 67.9447 45.2784 68.5556 44.6516C69.1666 44.0248 70.1563 44.0248 70.7672 44.6516Z" fill="#125978"/>
    <path d="M54.1568 53.1877C57.024 52.3335 59.0227 47.454 59.7474 45.3975C60.6742 43.2455 53.1189 40.9332 50.761 40.9C48.9289 38.5362 46.5588 36.644 43.848 35.3809C43.3133 33.1099 39.3725 26.2441 37.4721 27.6135C35.6348 28.7661 31.3139 31.8021 31.1134 34.7905C20.478 38.988 20.0775 53.3789 29.3855 60.5849C38.461 68.0558 52.4091 64.4809 54.1568 53.1877Z" fill="#F2AA45"/>
    <path d="M47.8495 62.5856C52.6305 56.5972 46.5255 56.8558 44.5968 53.5179C43.7829 52.1051 44.0981 49.3304 43.5914 47.7812C43.2029 46.7554 42.5458 45.8533 41.6888 45.1691C40.8319 44.485 39.8066 44.044 38.7202 43.8922C37.0973 43.7412 34.4499 44.6643 32.9033 44.1823C29.2213 43.0406 28.4222 36.6532 23.3405 43.0183C21.4476 48.9134 23.6818 56.0335 29.3818 60.5843C35.0819 65.1351 42.5136 65.7318 47.8495 62.5856Z" fill="#FFFFFC"/>
    <path d="M31.3912 58.0776C26.2438 53.9681 23.4386 48.2199 23.4617 42.965L23.3525 43.0035C21.4534 48.9077 23.6845 56.0356 29.3868 60.5881C35.0891 65.1407 42.5104 65.7347 47.8539 62.5804L47.8673 62.4654C42.7479 63.6516 36.529 62.1794 31.3912 58.0776Z" fill="#F1E7DC"/>
    <path d="M37.4686 40.895C37.4357 40.9558 37.3922 41.0103 37.3402 41.0558L37.39 40.9935C37.2194 41.1589 37.0081 41.2748 36.7797 41.3284L36.8539 41.3071C36.7559 41.3365 36.6546 41.3516 36.5532 41.3518L36.5058 41.3462C36.4452 41.3569 36.0797 41.2747 36.2986 41.3259C36.1789 41.3031 36.0652 41.2579 35.9634 41.1926C35.7721 41.0809 35.6203 40.9129 35.5275 40.7103C35.5971 40.9485 35.4725 40.532 35.4405 40.4419C35.4084 40.3519 35.4273 40.2111 35.4246 40.182C35.4167 40.0727 35.4354 39.9622 35.479 39.8601C35.4062 40.0814 35.5321 39.709 35.5656 39.6605C35.5743 39.6514 35.5822 39.6415 35.5892 39.631C35.6646 39.5685 35.7268 39.4914 35.772 39.4045C35.8172 39.3176 35.8443 39.2229 35.8516 39.1261C35.859 39.0294 35.8464 38.9329 35.8146 38.8426C35.7829 38.7524 35.7327 38.6703 35.6673 38.6017C35.6018 38.533 35.5225 38.4792 35.4343 38.4438C35.3461 38.4083 35.251 38.3918 35.1549 38.3955C35.0588 38.3991 34.9639 38.4228 34.8761 38.4649C34.7883 38.5071 34.7095 38.5669 34.6447 38.6405C33.1754 40.3962 34.7787 43.197 36.9948 42.6663C39.5872 42.0222 38.6519 39.8944 37.475 40.9001L37.4686 40.895ZM35.4516 40.467L35.4613 40.5069L35.4516 40.467Z" fill="#231F20"/>
    <path d="M48.5557 49.747C48.5229 49.8078 48.4793 49.8623 48.4273 49.9078L48.4797 49.8422C48.3096 50.0102 48.097 50.1275 47.8668 50.1804L47.941 50.159C47.8433 50.1899 47.7417 50.205 47.6403 50.2037L47.5928 50.1981C47.5349 50.2056 47.1667 50.1266 47.3856 50.1778C47.2671 50.1558 47.1544 50.1115 47.0536 50.047C46.8623 49.9353 46.7105 49.7673 46.6177 49.5647C46.6841 49.8004 46.5594 49.3838 46.5306 49.2963C46.5017 49.2088 46.5142 49.0629 46.5115 49.0338C46.5036 48.9245 46.5223 48.814 46.5659 48.7118C46.4931 48.9332 46.619 48.5608 46.6556 48.5148C46.6612 48.5034 46.6693 48.4933 46.6792 48.4853C46.7546 48.4228 46.8169 48.3457 46.8621 48.2588C46.9072 48.1719 46.9343 48.0772 46.9417 47.9804C46.949 47.8837 46.9364 47.7872 46.9047 47.6969C46.8729 47.6066 46.8228 47.5246 46.7573 47.4559C46.6918 47.3873 46.6125 47.3335 46.5243 47.298C46.4361 47.2625 46.341 47.2461 46.2449 47.2497C46.1488 47.2533 46.0538 47.277 45.966 47.3191C45.8782 47.3613 45.7994 47.4211 45.7346 47.4947C44.2622 49.2479 45.8658 52.0489 48.0852 51.5209C50.6778 50.8769 49.7391 48.7464 48.5621 49.752L48.5557 49.747ZM46.5386 49.3188L46.5482 49.3588L46.5386 49.3188Z" fill="#231F20"/>
    <path d="M54.953 53.3904C57.9684 52.4945 60.0602 47.3749 60.821 45.2183C61.7883 42.9543 53.8452 40.518 51.3806 40.4872C49.4533 38.0001 46.9591 36.0088 44.1069 34.6801C43.5407 32.2912 39.3898 25.072 37.4027 26.5217C35.4681 27.7413 30.9388 30.9149 30.7329 34.0538C19.5596 38.4457 19.1586 53.5634 28.9397 61.1367C38.4878 68.9953 53.1375 65.2743 54.953 53.3904ZM29.8529 60.0126C20.5875 52.872 21.2849 38.5145 32.188 35.0793C31.8765 32.4174 34.6497 30.1608 37.641 28.1307C37.7863 28.03 37.9641 27.987 38.1398 28.0102C38.3154 28.0333 38.4764 28.1209 38.5913 28.2559C39.9575 29.8335 42.6424 33.2125 42.808 35.6952C45.9733 37.0181 48.7066 39.2003 50.6975 41.994C53.1553 41.6057 57.0546 43.4833 58.8859 44.4586C59.043 44.5407 59.1641 44.6783 59.2256 44.8444C59.287 45.0106 59.2845 45.1935 59.2185 45.3575C57.8981 48.7216 56.3097 51.9346 53.65 52.214C52.7184 63.5891 38.8552 67.4564 29.8529 60.0126Z" fill="#231F20"/>
    <path d="M29.8529 60.0126C20.5875 52.872 21.2849 38.5145 32.188 35.0793C31.8765 32.4174 34.6497 30.1608 37.641 28.1307C37.7863 28.03 37.9641 27.987 38.1398 28.0102C38.3154 28.0333 38.4764 28.1209 38.5913 28.2559C39.9575 29.8335 42.6424 33.2125 42.808 35.6952C45.9733 37.0181 48.7066 39.2003 50.6975 41.994C53.1553 41.6057 57.0546 43.4833 58.8859 44.4586C59.043 44.5407 59.1641 44.6783 59.2256 44.8444C59.287 45.0106 59.2845 45.1935 59.2185 45.3575C57.8981 48.7216 56.3097 51.9346 53.65 52.214C52.7184 63.5891 38.8552 67.4564 29.8529 60.0126M54.953 53.3904C57.9684 52.4945 60.0602 47.3749 60.821 45.2183C61.7883 42.9543 53.8452 40.518 51.3806 40.4872C49.4533 38.0001 46.9591 36.0088 44.1069 34.6801C43.5407 32.2912 39.3898 25.072 37.4027 26.5217C35.4681 27.7413 30.9388 30.9149 30.7329 34.0538C19.5596 38.4457 19.1586 53.5634 28.9397 61.1367C38.4878 68.9953 53.1375 65.2743 54.953 53.3904V53.3904Z" stroke="#231F20" stroke-width="0.5"/>
    <path d="M41.2132 34.2788C40.4587 31.711 38.3053 28.8375 37.5986 29.1C36.8919 29.3625 34.736 30.4179 33.0274 34.6225C33.0274 34.6225 37.896 32.8367 41.2132 34.2788Z" fill="#D57728"/>
    <path d="M41.2395 34.2457C40.825 32.8451 40.1705 31.5351 39.3051 30.3736C38.5317 30.8071 37.2775 31.7919 36.0679 33.9631C37.6753 33.6701 39.6426 33.5698 41.2395 34.2457Z" fill="#B8532A"/>
    <path d="M52.4141 43.2213C55.0853 43.3884 58.3643 44.8519 58.2648 45.5992C58.1652 46.3465 57.6135 48.6826 53.8917 51.2799C53.8917 51.2799 54.5549 46.1367 52.4141 43.2213Z" fill="#D57728"/>
    <path d="M52.4402 43.1882C53.8978 43.2823 55.3203 43.6304 56.6446 44.2171C56.3931 45.0672 55.7105 46.5084 53.861 48.1688C53.7908 46.5364 53.4529 44.5957 52.4402 43.1882Z" fill="#B8532A"/>
    <path d="M42.4494 38.5312C42.2786 39.179 41.3345 39.5003 40.3323 39.2403C39.3302 38.9803 38.6629 38.2554 38.8306 37.6051C38.9982 36.9548 39.9398 36.6367 40.9476 36.896C41.9555 37.1554 42.6202 37.8834 42.4526 38.5338" fill="#FDF2D8"/>
    <path d="M47.9931 42.9572C47.3992 43.2673 47.295 44.259 47.7705 45.1788C48.246 46.0985 49.1006 46.5886 49.6977 46.2811C50.2947 45.9736 50.3964 44.985 49.9203 44.0596C49.4442 43.1342 48.587 42.6472 47.99 42.9547" fill="#FDF2D8"/>
    <path d="M38.9625 48.803C38.8825 48.8509 38.7233 48.7238 38.7491 48.6327C38.7491 48.6327 35.5702 48.1871 34.8092 47.0768C34.2178 49.8092 38.8194 53.4881 41.3523 52.3006C40.1017 51.81 38.9625 48.803 38.9625 48.803Z" fill="#F1E7DC"/>
    <path d="M43.0802 47.8616C42.2935 48.8471 40.6774 48.9015 39.4737 47.9405C38.2699 46.9795 37.9579 45.4072 38.7551 44.4086C39.5524 43.41 43.867 46.8762 43.0802 47.8616Z" fill="#231F20"/>
    <path d="M42.509 47.2125C42.1979 47.6022 41.2757 47.3816 40.4493 46.7218C39.623 46.0621 39.2011 45.2148 39.5147 44.8219C39.8284 44.4291 42.8202 46.8228 42.509 47.2125Z" fill="#6C544C"/>
    <path d="M43.7507 51.3242C43.8407 51.2115 43.8826 51.0681 43.8674 50.9254C43.8521 50.7828 43.7808 50.6526 43.6693 50.5635C43.5577 50.4744 43.415 50.4338 43.2725 50.4505C43.13 50.4672 42.9994 50.5398 42.9094 50.6525C41.7669 52.0836 39.6734 50.8463 39.9077 49.1713C39.8311 48.6185 40.4279 47.8711 39.7998 47.5161C39.229 46.9662 38.2885 48.0146 37.5339 47.8829C36.1418 48.0634 35.0713 46.2777 36.052 45.1986C36.5102 44.6701 35.6695 44.0041 35.2107 44.527C33.2975 47.0531 36.1651 49.9283 38.8759 48.6928C38.3031 51.6352 41.6831 53.7583 43.75 51.3445" fill="#231F20"/>
</svg>
