<svg width="209" height="214" viewBox="0 0 209 214" fill="none" xmlns="http://www.w3.org/2000/svg">
    <g clip-path="url(#clip0)">
        <g opacity="0.4">
            <path d="M225.731 59.7005C227.99 62.0192 228.303 65.6685 226.47 68.3551C192.946 117.513 151.493 160.437 103.895 195.277L100.136 198.028C97.3795 200.046 93.6062 199.724 91.2122 197.266L74.2907 179.899C84.2797 169.284 84.1702 152.367 73.9617 141.889C63.7528 131.412 47.27 131.299 36.9266 141.551L21.3617 125.577C18.4018 122.539 18.8101 117.5 22.2181 115.006L25.9794 112.252C72.4266 78.2547 112.878 36.3688 145.59 -11.6009C147.883 -14.9607 152.575 -15.3826 155.4 -12.4824L171.241 3.77597C161.291 14.3942 161.411 31.2823 171.608 41.7464C181.805 52.2107 198.258 52.3361 208.604 42.1224L225.731 59.7005Z" fill="#48AF99"/>
            <path d="M233.233 64.5128L172.736 143.133L94.491 203.922L79.4432 188.366L74.0143 181.611L79.4432 173.549L81.3457 165.486L80.2983 156.887L77.1563 148.825L71.9192 142.375L65.6349 138.075L58.827 135.925H50.4481L41.5452 139.15L36.3083 143.987L23.74 128.401L44.1855 125.271C107.601 115.564 167.519 89.285 218.185 48.9575L233.233 64.5128Z" fill="#279191"/>
            <path fill-rule="evenodd" clip-rule="evenodd" d="M66.6559 180.669C66.6584 178.384 67.5457 176.195 69.1226 174.584L69.1506 174.555C76.1979 167.322 76.1979 155.595 69.1506 148.363C62.1034 141.13 50.6774 141.13 43.6301 148.363L43.6024 148.391C42.032 150.009 39.8991 150.92 37.6741 150.923C35.4486 150.925 33.3139 150.019 31.7404 148.404L15.4378 131.672C8.81482 124.875 9.72817 113.6 17.3538 108.018L21.115 105.265L25.9803 112.267L22.2191 115.02C18.811 117.515 18.4027 122.553 21.3625 125.591L37.6652 142.323L37.7053 142.282C37.7182 142.268 37.7309 142.255 37.7441 142.242C48.0663 131.69 64.7687 131.703 75.0754 142.282C85.3813 152.859 85.3949 170 75.1162 180.593C75.1028 180.607 75.0889 180.622 75.0754 180.636L75.0348 180.676L91.213 197.281C93.6069 199.738 97.3803 200.059 100.137 198.042L103.895 195.291C151.494 160.451 192.948 117.528 226.471 68.3698C228.303 65.6832 227.992 62.0338 225.731 59.715L208.739 42.274C208.677 42.3386 208.615 42.4028 208.553 42.4671C208.489 42.531 208.426 42.5949 208.364 42.6584C198.03 53.0576 181.439 52.9941 171.182 42.4671C160.925 31.9398 160.863 14.9115 170.996 4.30571C171.058 4.2411 171.12 4.17685 171.182 4.11296C171.245 4.04872 171.307 3.98521 171.371 3.92169L155.402 -12.4678C152.575 -15.3679 147.884 -14.946 145.592 -11.5862C112.879 36.3833 72.4273 78.2692 25.9803 112.267L21.115 105.265C66.7858 71.8362 106.561 30.6504 138.728 -16.5172C144.006 -24.2584 154.816 -25.2302 161.327 -18.5489L177.296 -2.15911C178.877 -0.53615 179.76 1.66832 179.749 3.96367C179.739 6.25903 178.834 8.45472 177.237 10.062C177.193 10.1054 177.151 10.1496 177.107 10.1938C170.06 17.4266 170.06 29.153 177.107 36.3859C184.154 43.6188 195.58 43.6188 202.628 36.3859C202.67 36.3421 202.712 36.2976 202.756 36.2527C204.322 34.614 206.462 33.6854 208.698 33.6744C210.934 33.6632 213.081 34.5699 214.663 36.1928L231.658 53.634C236.791 58.9036 237.5 67.1954 233.335 73.3011C199.265 123.261 157.135 166.885 108.761 202.292L105.002 205.044C98.9125 209.501 90.5767 208.79 85.2882 203.361L69.11 186.758C67.5365 185.143 66.6538 182.952 66.6559 180.669Z" fill="#125978"/>
            <path fill-rule="evenodd" clip-rule="evenodd" d="M123.56 17.5537L127.264 21.354C128.899 23.0332 128.899 25.7558 127.264 27.435C125.627 29.1145 122.974 29.1145 121.339 27.435L117.635 23.6345C116 21.9553 116 19.2329 117.635 17.5537C119.272 15.8745 121.925 15.8745 123.56 17.5537Z" fill="#125978"/>
            <path fill-rule="evenodd" clip-rule="evenodd" d="M139.117 33.5325L142.821 37.333C144.456 39.012 144.456 41.7345 142.821 43.414C141.184 45.0932 138.531 45.0932 136.895 43.414L133.192 39.6132C131.555 37.9341 131.555 35.2117 133.192 33.5325C134.829 31.8533 137.48 31.8533 139.117 33.5325Z" fill="#125978"/>
            <path fill-rule="evenodd" clip-rule="evenodd" d="M158.369 59.3706C156.732 61.0498 154.079 61.0498 152.444 59.3706L148 54.8099C146.364 53.1307 146.364 50.4083 148 48.7291C149.636 47.0499 152.288 47.0499 153.925 48.7291L158.369 53.2896C160.004 54.9686 160.004 57.6915 158.369 59.3706Z" fill="#125978"/>
            <path fill-rule="evenodd" clip-rule="evenodd" d="M173.924 75.3342C172.289 77.0134 169.636 77.0134 167.999 75.3342L163.557 70.7733C161.92 69.0942 161.92 66.3717 163.557 64.6925C165.192 63.0133 167.845 63.0133 169.48 64.6925L173.924 69.2529C175.561 70.9321 175.561 73.655 173.924 75.3342Z" fill="#125978"/>
            <path fill-rule="evenodd" clip-rule="evenodd" d="M185.031 80.6691L188.735 84.4699C190.37 86.149 190.37 88.8714 188.735 90.5506C187.098 92.2298 184.445 92.2298 182.81 90.5506L179.106 86.7501C177.471 85.071 177.471 82.3483 179.106 80.6691C180.743 78.9899 183.396 78.9899 185.031 80.6691Z" fill="#125978"/>
            <path fill-rule="evenodd" clip-rule="evenodd" d="M200.588 96.6237L204.29 100.424C205.927 102.104 205.927 104.826 204.29 106.505C202.655 108.184 200.002 108.184 198.365 106.505L194.663 102.705C193.026 101.026 193.026 98.3028 194.663 96.6237C196.3 94.9445 198.951 94.9445 200.588 96.6237Z" fill="#125978"/>
            <path d="M156.089 119.493C163.771 117.204 169.125 104.132 171.067 98.6223C173.55 92.8571 153.309 86.6622 146.992 86.5733C142.084 80.2405 135.734 75.1711 128.471 71.7872C127.039 65.7033 116.481 47.3094 111.39 50.9781C106.468 54.066 94.8921 62.1996 94.3547 70.2057C65.8619 81.451 64.789 120.005 89.7256 139.31C114.039 159.325 151.407 149.748 156.089 119.493Z" fill="#F2AA45"/>
            <path d="M139.191 144.67C152 128.627 135.644 129.32 130.477 120.378C128.297 116.592 129.141 109.159 127.784 105.009C126.743 102.261 124.982 99.8436 122.686 98.0107C120.391 96.1778 117.644 94.9963 114.733 94.5898C110.386 94.1852 103.293 96.6582 99.1496 95.3668C89.2852 92.3082 87.1444 75.1961 73.5303 92.2485C68.4592 108.042 74.4445 127.117 89.7153 139.309C104.986 151.5 124.896 153.099 139.191 144.67Z" fill="#FFFFFC"/>
            <path d="M95.0981 132.593C81.308 121.584 73.7928 106.184 73.8545 92.1056L73.5622 92.2089C68.4744 108.027 74.4515 127.123 89.7282 139.319C105.005 151.516 124.887 153.107 139.203 144.656L139.239 144.348C125.523 147.526 108.863 143.582 95.0981 132.593Z" fill="#F1E7DC"/>
            <path d="M111.381 86.5605C111.293 86.7233 111.176 86.8693 111.037 86.9913L111.17 86.8242C110.713 87.2673 110.147 87.5779 109.535 87.7216L109.734 87.6643C109.471 87.7433 109.2 87.7837 108.928 87.7842L108.801 87.7691C108.639 87.798 107.66 87.5776 108.246 87.7147C107.925 87.6536 107.621 87.5326 107.348 87.3577C106.836 87.0584 106.429 86.6084 106.18 86.0656C106.367 86.7038 106.033 85.5879 105.947 85.3466C105.861 85.1054 105.912 84.7282 105.905 84.6503C105.884 84.3575 105.934 84.0615 106.05 83.7878C105.855 84.3807 106.193 83.383 106.282 83.2531C106.306 83.2286 106.327 83.2021 106.346 83.174C106.548 83.0067 106.714 82.8001 106.835 82.5673C106.956 82.3346 107.029 82.0806 107.049 81.8215C107.068 81.5624 107.035 81.3038 106.95 81.062C106.865 80.8201 106.73 80.6003 106.555 80.4164C106.379 80.2325 106.167 80.0885 105.931 79.9934C105.694 79.8983 105.44 79.8543 105.182 79.8641C104.925 79.8738 104.67 79.9372 104.435 80.0502C104.2 80.1631 103.989 80.3233 103.815 80.5204C99.879 85.2241 104.174 92.7277 110.111 91.3058C117.057 89.5802 114.551 83.8798 111.398 86.574L111.381 86.5605ZM105.977 85.4137L106.003 85.5208L105.977 85.4137Z" fill="#231F20"/>
            <path d="M141.084 110.275C140.996 110.438 140.879 110.584 140.74 110.706L140.881 110.53C140.425 110.98 139.855 111.294 139.238 111.436L139.437 111.379C139.175 111.461 138.903 111.502 138.632 111.498L138.504 111.483C138.349 111.503 137.363 111.292 137.949 111.429C137.632 111.37 137.33 111.251 137.06 111.079C136.547 110.779 136.14 110.329 135.892 109.786C136.07 110.418 135.736 109.302 135.659 109.067C135.581 108.833 135.615 108.442 135.607 108.364C135.586 108.071 135.636 107.775 135.753 107.502C135.558 108.095 135.895 107.097 135.994 106.974C136.009 106.943 136.03 106.916 136.057 106.895C136.259 106.727 136.426 106.521 136.547 106.288C136.668 106.055 136.74 105.801 136.76 105.542C136.78 105.283 136.746 105.024 136.661 104.782C136.576 104.541 136.441 104.321 136.266 104.137C136.091 103.953 135.878 103.809 135.642 103.714C135.405 103.619 135.151 103.575 134.893 103.584C134.636 103.594 134.381 103.658 134.146 103.77C133.911 103.883 133.7 104.044 133.526 104.241C129.581 108.938 133.878 116.442 139.824 115.027C146.769 113.302 144.254 107.594 141.101 110.288L141.084 110.275ZM135.68 109.128L135.706 109.235L135.68 109.128Z" fill="#231F20"/>
            <path d="M158.223 120.036C166.301 117.636 171.905 103.92 173.944 98.1423C176.535 92.077 155.255 85.55 148.652 85.4677C143.489 78.8045 136.807 73.4697 129.165 69.91C127.649 63.51 116.528 44.1694 111.204 48.0534C106.022 51.3205 93.8874 59.8229 93.3358 68.2321C63.4019 79.9984 62.3275 120.499 88.5316 140.789C114.112 161.842 153.359 151.874 158.223 120.036ZM90.9781 137.777C66.1557 118.647 68.0241 80.1825 97.2339 70.9796C96.3996 63.8482 103.829 57.8025 111.843 52.3638C112.232 52.094 112.709 51.979 113.179 52.041C113.65 52.103 114.081 52.3377 114.389 52.6994C118.049 56.9258 125.242 65.9783 125.686 72.6296C134.166 76.1737 141.488 82.0199 146.822 89.5043C153.407 88.4641 163.853 93.4944 168.759 96.1071C169.18 96.3272 169.504 96.6957 169.669 97.1409C169.834 97.586 169.827 98.076 169.65 98.5154C166.113 107.528 161.857 116.136 154.732 116.884C152.236 147.359 115.096 157.719 90.9781 137.777Z" fill="#231F20"/>
            <path d="M90.9781 137.777C66.1557 118.647 68.0241 80.1825 97.2339 70.9796C96.3996 63.8482 103.829 57.8025 111.843 52.3638C112.232 52.094 112.709 51.979 113.179 52.041C113.65 52.103 114.081 52.3377 114.389 52.6994C118.049 56.9258 125.242 65.9783 125.686 72.6296C134.166 76.1737 141.488 82.0199 146.822 89.5043C153.407 88.4641 163.853 93.4944 168.759 96.1071C169.18 96.3272 169.504 96.6957 169.669 97.1409C169.834 97.586 169.827 98.076 169.65 98.5154C166.113 107.528 161.857 116.136 154.732 116.884C152.236 147.359 115.096 157.719 90.9781 137.777M158.223 120.036C166.301 117.636 171.905 103.92 173.944 98.1423C176.535 92.077 155.255 85.55 148.652 85.4677C143.489 78.8045 136.807 73.4697 129.165 69.91C127.649 63.51 116.528 44.1694 111.204 48.0534C106.022 51.3205 93.8874 59.8229 93.3358 68.2321C63.4019 79.9984 62.3275 120.499 88.5316 140.789C114.112 161.842 153.359 151.874 158.223 120.036V120.036Z" stroke="#231F20" stroke-width="0.5"/>
            <path d="M121.412 68.8346C119.391 61.9553 113.622 54.257 111.729 54.9604C109.835 55.6638 104.06 58.4911 99.4822 69.7555C99.4822 69.7555 112.525 64.9713 121.412 68.8346Z" fill="#D57728"/>
            <path d="M121.483 68.746C120.373 64.9938 118.62 61.4841 116.301 58.3724C114.229 59.5337 110.869 62.1721 107.629 67.989C111.935 67.2039 117.205 66.9352 121.483 68.746Z" fill="#B8532A"/>
            <path d="M151.421 92.7921C158.577 93.2398 167.361 97.1608 167.095 99.1628C166.828 101.165 165.35 107.423 155.379 114.382C155.379 114.382 157.156 100.603 151.421 92.7921Z" fill="#D57728"/>
            <path d="M151.491 92.7035C155.396 92.9554 159.207 93.888 162.755 95.4599C162.081 97.7375 160.253 101.599 155.298 106.047C155.11 101.673 154.204 96.4743 151.491 92.7035Z" fill="#B8532A"/>
            <path d="M124.725 80.2279C124.267 81.9634 121.738 82.8241 119.053 82.1275C116.368 81.4309 114.58 79.489 115.03 77.7467C115.479 76.0044 118.001 75.1523 120.701 75.8471C123.401 76.542 125.182 78.4924 124.733 80.2347" fill="#FDF2D8"/>
            <path d="M139.577 92.0849C137.986 92.9155 137.706 95.5725 138.98 98.0365C140.254 100.5 142.544 101.814 144.143 100.99C145.743 100.166 146.015 97.5174 144.74 95.0382C143.464 92.559 141.168 91.2543 139.568 92.0781" fill="#FDF2D8"/>
            <path d="M115.382 107.746C115.168 107.875 114.741 107.534 114.81 107.29C114.81 107.29 106.294 106.096 104.255 103.121C102.671 110.442 114.999 120.298 121.785 117.116C118.434 115.802 115.382 107.746 115.382 107.746Z" fill="#F1E7DC"/>
            <path d="M126.415 105.224C124.307 107.864 119.977 108.01 116.752 105.435C113.528 102.86 112.691 98.6481 114.827 95.9728C116.963 93.2975 128.522 102.584 126.415 105.224Z" fill="#231F20"/>
            <path d="M124.884 103.485C124.05 104.529 121.579 103.938 119.366 102.17C117.152 100.403 116.022 98.1329 116.862 97.0804C117.702 96.0279 125.717 102.441 124.884 103.485Z" fill="#6C544C"/>
            <path d="M128.21 114.5C128.451 114.198 128.563 113.814 128.523 113.432C128.482 113.05 128.291 112.701 127.992 112.462C127.693 112.224 127.311 112.115 126.929 112.159C126.547 112.204 126.197 112.399 125.956 112.701C122.895 116.535 117.287 113.22 117.914 108.733C117.709 107.252 119.308 105.249 117.625 104.298C116.096 102.825 113.576 105.634 111.555 105.281C107.825 105.764 104.958 100.98 107.585 98.0895C108.812 96.6735 106.56 94.8894 105.331 96.2901C100.205 103.058 107.888 110.76 115.15 107.451C113.616 115.333 122.671 121.021 128.208 114.555" fill="#231F20"/>
        </g>
    </g>
    <defs>
        <clipPath id="clip0">
            <path d="M0 0H193C201.837 0 209 7.16344 209 16V214H0V0Z" fill="white"/>
        </clipPath>
    </defs>
</svg>
